<?xml version="1.0" encoding="UTF-8" standalone="no"?>
<!DOCTYPE svg PUBLIC "-//W3C//DTD SVG 1.1//EN"
 "http://www.w3.org/Graphics/SVG/1.1/DTD/svg11.dtd">
<!-- Generated by graphviz version 2.44.0 (20200408.0750)
 -->
<!-- Pages: 1 -->
<svg width="2452px" height="404px"
 viewBox="0.00 0.00 2451.98 404.00" xmlns="http://www.w3.org/2000/svg" xmlns:xlink="http://www.w3.org/1999/xlink">
<g id="graph0" class="graph" transform="scale(1.0 1.0) rotate(0.0) translate(4.0 400.0)">
<polygon fill="white" stroke="transparent" points="-4,4 -4,-400 2447.98,-400 2447.98,4 -4,4"/>
<!-- 0 -->
<g id="node1" class="node">
<title>0</title>
<polygon fill="none" stroke="black" points="729.77,-396 576.63,-396 576.63,-360 729.77,-360 729.77,-396"/>
<text text-anchor="middle" x="653.2" y="-373.8" font-family="Times,serif" font-size="14.00">NonTerminal{for_loop}</text>
</g>
<!-- 1 -->
<g id="node2" class="node">
<title>1</title>
<polygon fill="none" stroke="black" points="148.59,-324 -0.2,-324 -0.2,-288 148.59,-288 148.59,-324"/>
<text text-anchor="middle" x="74.2" y="-301.8" font-family="Times,serif" font-size="14.00">Token{FOR, &#39;for&#39;, for}</text>
</g>
<!-- 0&#45;&gt;1 -->
<g id="edge1" class="edge">
<title>0&#45;&gt;1</title>
<path fill="none" stroke="black" d="M576.43,-371.09C480.8,-363.21 312.25,-347.64 158.87,-324.19"/>
<polygon fill="black" stroke="black" points="159.21,-320.7 148.79,-322.63 158.14,-327.61 159.21,-320.7"/>
</g>
<!-- 2 -->
<g id="node3" class="node">
<title>2</title>
<polygon fill="none" stroke="black" points="318.48,-324 165.91,-324 165.91,-288 318.48,-288 318.48,-324"/>
<text text-anchor="middle" x="242.2" y="-301.8" font-family="Times,serif" font-size="14.00">Token{LPAREN, &#39;(&#39;, (}</text>
</g>
<!-- 0&#45;&gt;2 -->
<g id="edge2" class="edge">
<title>0&#45;&gt;2</title>
<path fill="none" stroke="black" d="M576.65,-365.36C512.83,-355.47 419.25,-340.53 328.53,-324.21"/>
<polygon fill="black" stroke="black" points="329.09,-320.76 318.63,-322.42 327.85,-327.64 329.09,-320.76"/>
</g>
<!-- 3 -->
<g id="node4" class="node">
<title>3</title>
<polygon fill="none" stroke="black" points="459.73,-324 336.67,-324 336.67,-288 459.73,-288 459.73,-324"/>
<text text-anchor="middle" x="398.2" y="-301.8" font-family="Times,serif" font-size="14.00">NonTerminal{init}</text>
</g>
<!-- 0&#45;&gt;3 -->
<g id="edge3" class="edge">
<title>0&#45;&gt;3</title>
<path fill="none" stroke="black" d="M591.14,-359.97C554.6,-349.94 508.23,-337.2 470.1,-326.74"/>
<polygon fill="black" stroke="black" points="470.66,-323.26 460.09,-323.99 468.8,-330.01 470.66,-323.26"/>
</g>
<!-- 4 -->
<g id="node5" class="node">
<title>4</title>
<polygon fill="none" stroke="black" points="656.15,-324 478.24,-324 478.24,-288 656.15,-288 656.15,-324"/>
<text text-anchor="middle" x="567.2" y="-301.8" font-family="Times,serif" font-size="14.00">Token{SEMICOLON, &#39;;&#39;, ;}</text>
</g>
<!-- 0&#45;&gt;4 -->
<g id="edge4" class="edge">
<title>0&#45;&gt;4</title>
<path fill="none" stroke="black" d="M631.94,-359.7C621.11,-350.88 607.78,-340.03 596.04,-330.47"/>
<polygon fill="black" stroke="black" points="598.18,-327.7 588.21,-324.1 593.76,-333.13 598.18,-327.7"/>
</g>
<!-- 5 -->
<g id="node6" class="node">
<title>5</title>
<polygon fill="none" stroke="black" points="806.27,-324 674.12,-324 674.12,-288 806.27,-288 806.27,-324"/>
<text text-anchor="middle" x="740.2" y="-301.8" font-family="Times,serif" font-size="14.00">NonTerminal{cond}</text>
</g>
<!-- 0&#45;&gt;5 -->
<g id="edge5" class="edge">
<title>0&#45;&gt;5</title>
<path fill="none" stroke="black" d="M674.7,-359.7C685.66,-350.88 699.14,-340.03 711.02,-330.47"/>
<polygon fill="black" stroke="black" points="713.34,-333.1 718.94,-324.1 708.95,-327.65 713.34,-333.1"/>
</g>
<!-- 24 -->
<g id="node25" class="node">
<title>24</title>
<polygon fill="none" stroke="black" points="1002.15,-324 824.24,-324 824.24,-288 1002.15,-288 1002.15,-324"/>
<text text-anchor="middle" x="913.2" y="-301.8" font-family="Times,serif" font-size="14.00">Token{SEMICOLON, &#39;;&#39;, ;}</text>
</g>
<!-- 0&#45;&gt;24 -->
<g id="edge6" class="edge">
<title>0&#45;&gt;24</title>
<path fill="none" stroke="black" d="M716.47,-359.97C753.74,-349.93 801.06,-337.19 839.95,-326.72"/>
<polygon fill="black" stroke="black" points="840.9,-330.09 849.64,-324.11 839.08,-323.33 840.9,-330.09"/>
</g>
<!-- 25 -->
<g id="node26" class="node">
<title>25</title>
<polygon fill="none" stroke="black" points="1142.16,-324 1020.23,-324 1020.23,-288 1142.16,-288 1142.16,-324"/>
<text text-anchor="middle" x="1081.2" y="-301.8" font-family="Times,serif" font-size="14.00">NonTerminal{inc}</text>
</g>
<!-- 0&#45;&gt;25 -->
<g id="edge7" class="edge">
<title>0&#45;&gt;25</title>
<path fill="none" stroke="black" d="M730.01,-367.69C800.47,-358.68 907.87,-343.76 1010.29,-324.08"/>
<polygon fill="black" stroke="black" points="1011.04,-327.5 1020.19,-322.16 1009.7,-320.63 1011.04,-327.5"/>
</g>
<!-- 26 -->
<g id="node27" class="node">
<title>26</title>
<polygon fill="none" stroke="black" points="1313.77,-324 1160.63,-324 1160.63,-288 1313.77,-288 1313.77,-324"/>
<text text-anchor="middle" x="1237.2" y="-301.8" font-family="Times,serif" font-size="14.00">Token{RPAREN, &#39;)&#39;, )}</text>
</g>
<!-- 0&#45;&gt;26 -->
<g id="edge8" class="edge">
<title>0&#45;&gt;26</title>
<path fill="none" stroke="black" d="M729.83,-370.98C825.74,-362.97 995.22,-347.23 1150.18,-324.08"/>
<polygon fill="black" stroke="black" points="1151,-327.49 1160.36,-322.54 1149.95,-320.57 1151,-327.49"/>
</g>
<!-- 6 -->
<g id="node7" class="node">
<title>6</title>
<polygon fill="none" stroke="black" points="266.17,-252 48.22,-252 48.22,-216 266.17,-216 266.17,-252"/>
<text text-anchor="middle" x="157.2" y="-229.8" font-family="Times,serif" font-size="14.00">Token{VAR, Variable identifier, a}</text>
</g>
<!-- 5&#45;&gt;6 -->
<g id="edge9" class="edge">
<title>5&#45;&gt;6</title>
<path fill="none" stroke="black" d="M674.03,-289.51C671.05,-288.97 668.1,-288.46 665.2,-288 496.47,-261.21 449.79,-272 276.43,-252.1"/>
<polygon fill="black" stroke="black" points="276.8,-248.62 266.46,-250.94 275.99,-255.58 276.8,-248.62"/>
</g>
<!-- 7 -->
<g id="node8" class="node">
<title>7</title>
<polygon fill="none" stroke="black" points="591.75,-252 284.64,-252 284.64,-216 591.75,-216 591.75,-252"/>
<text text-anchor="middle" x="438.2" y="-229.8" font-family="Times,serif" font-size="14.00">Token{COMPARE_SIGN, Comparing operator, &lt;}</text>
</g>
<!-- 5&#45;&gt;7 -->
<g id="edge10" class="edge">
<title>5&#45;&gt;7</title>
<path fill="none" stroke="black" d="M673.92,-289.64C629.09,-279.25 569.52,-265.44 521.49,-254.31"/>
<polygon fill="black" stroke="black" points="522.26,-250.89 511.73,-252.04 520.68,-257.71 522.26,-250.89"/>
</g>
<!-- 8 -->
<g id="node9" class="node">
<title>8</title>
<polygon fill="none" stroke="black" points="869.77,-252 610.62,-252 610.62,-216 869.77,-216 869.77,-252"/>
<text text-anchor="middle" x="740.2" y="-229.8" font-family="Times,serif" font-size="14.00">Token{VALUE, Decimal integer literal, 5}</text>
</g>
<!-- 5&#45;&gt;8 -->
<g id="edge11" class="edge">
<title>5&#45;&gt;8</title>
<path fill="none" stroke="black" d="M740.2,-287.7C740.2,-279.98 740.2,-270.71 740.2,-262.11"/>
<polygon fill="black" stroke="black" points="743.7,-262.1 740.2,-252.1 736.7,-262.1 743.7,-262.1"/>
</g>
<!-- 9 -->
<g id="node10" class="node">
<title>9</title>
<polygon fill="none" stroke="black" points="1080.44,-252 887.95,-252 887.95,-216 1080.44,-216 1080.44,-252"/>
<text text-anchor="middle" x="984.2" y="-229.8" font-family="Times,serif" font-size="14.00">Token{AND_SIGN, &amp;&amp;, &amp;&amp;}</text>
</g>
<!-- 5&#45;&gt;9 -->
<g id="edge12" class="edge">
<title>5&#45;&gt;9</title>
<path fill="none" stroke="black" d="M799.57,-287.97C834.26,-278.01 878.21,-265.41 914.53,-254.99"/>
<polygon fill="black" stroke="black" points="915.91,-258.23 924.55,-252.11 913.98,-251.5 915.91,-258.23"/>
</g>
<!-- 10 -->
<g id="node11" class="node">
<title>10</title>
<polygon fill="none" stroke="black" points="1230.27,-252 1098.12,-252 1098.12,-216 1230.27,-216 1230.27,-252"/>
<text text-anchor="middle" x="1164.2" y="-229.8" font-family="Times,serif" font-size="14.00">NonTerminal{cond}</text>
</g>
<!-- 5&#45;&gt;10 -->
<g id="edge13" class="edge">
<title>5&#45;&gt;10</title>
<path fill="none" stroke="black" d="M806.38,-289.65C809.36,-289.07 812.31,-288.52 815.2,-288 932.92,-266.97 966.53,-273.24 1087.95,-252.13"/>
<polygon fill="black" stroke="black" points="1088.77,-255.54 1098.01,-250.35 1087.55,-248.64 1088.77,-255.54"/>
</g>
<!-- 11 -->
<g id="node12" class="node">
<title>11</title>
<polygon fill="none" stroke="black" points="690.62,-180 473.78,-180 473.78,-144 690.62,-144 690.62,-180"/>
<text text-anchor="middle" x="582.2" y="-157.8" font-family="Times,serif" font-size="14.00">Token{VAR, Variable identifier, f}</text>
</g>
<!-- 10&#45;&gt;11 -->
<g id="edge14" class="edge">
<title>10&#45;&gt;11</title>
<path fill="none" stroke="black" d="M1098.03,-217.51C1095.05,-216.97 1092.1,-216.46 1089.2,-216 920.47,-189.21 873.78,-200.1 700.5,-180.11"/>
<polygon fill="black" stroke="black" points="700.87,-176.63 690.54,-178.94 700.06,-183.58 700.87,-176.63"/>
</g>
<!-- 12 -->
<g id="node13" class="node">
<title>12</title>
<polygon fill="none" stroke="black" points="1015.75,-180 708.64,-180 708.64,-144 1015.75,-144 1015.75,-180"/>
<text text-anchor="middle" x="862.2" y="-157.8" font-family="Times,serif" font-size="14.00">Token{COMPARE_SIGN, Comparing operator, &gt;}</text>
</g>
<!-- 10&#45;&gt;12 -->
<g id="edge15" class="edge">
<title>10&#45;&gt;12</title>
<path fill="none" stroke="black" d="M1097.92,-217.64C1053.09,-207.25 993.52,-193.44 945.49,-182.31"/>
<polygon fill="black" stroke="black" points="946.26,-178.89 935.73,-180.04 944.68,-185.71 946.26,-178.89"/>
</g>
<!-- 13 -->
<g id="node14" class="node">
<title>13</title>
<polygon fill="none" stroke="black" points="1293.77,-180 1034.62,-180 1034.62,-144 1293.77,-144 1293.77,-180"/>
<text text-anchor="middle" x="1164.2" y="-157.8" font-family="Times,serif" font-size="14.00">Token{VALUE, Decimal integer literal, 2}</text>
</g>
<!-- 10&#45;&gt;13 -->
<g id="edge16" class="edge">
<title>10&#45;&gt;13</title>
<path fill="none" stroke="black" d="M1164.2,-215.7C1164.2,-207.98 1164.2,-198.71 1164.2,-190.11"/>
<polygon fill="black" stroke="black" points="1167.7,-190.1 1164.2,-180.1 1160.7,-190.1 1167.7,-190.1"/>
</g>
<!-- 14 -->
<g id="node15" class="node">
<title>14</title>
<polygon fill="none" stroke="black" points="1504.44,-180 1311.95,-180 1311.95,-144 1504.44,-144 1504.44,-180"/>
<text text-anchor="middle" x="1408.2" y="-157.8" font-family="Times,serif" font-size="14.00">Token{AND_SIGN, &amp;&amp;, &amp;&amp;}</text>
</g>
<!-- 10&#45;&gt;14 -->
<g id="edge17" class="edge">
<title>10&#45;&gt;14</title>
<path fill="none" stroke="black" d="M1223.57,-215.97C1258.26,-206.01 1302.21,-193.41 1338.53,-182.99"/>
<polygon fill="black" stroke="black" points="1339.91,-186.23 1348.55,-180.11 1337.98,-179.5 1339.91,-186.23"/>
</g>
<!-- 15 -->
<g id="node16" class="node">
<title>15</title>
<polygon fill="none" stroke="black" points="1654.27,-180 1522.12,-180 1522.12,-144 1654.27,-144 1654.27,-180"/>
<text text-anchor="middle" x="1588.2" y="-157.8" font-family="Times,serif" font-size="14.00">NonTerminal{cond}</text>
</g>
<!-- 10&#45;&gt;15 -->
<g id="edge18" class="edge">
<title>10&#45;&gt;15</title>
<path fill="none" stroke="black" d="M1230.37,-224.4C1298.54,-215.21 1408.08,-199.54 1511.96,-180.16"/>
<polygon fill="black" stroke="black" points="1512.82,-183.57 1522,-178.28 1511.52,-176.69 1512.82,-183.57"/>
</g>
<!-- 16 -->
<g id="node17" class="node">
<title>16</title>
<polygon fill="none" stroke="black" points="1114.17,-108 896.22,-108 896.22,-72 1114.17,-72 1114.17,-108"/>
<text text-anchor="middle" x="1005.2" y="-85.8" font-family="Times,serif" font-size="14.00">Token{VAR, Variable identifier, a}</text>
</g>
<!-- 15&#45;&gt;16 -->
<g id="edge19" class="edge">
<title>15&#45;&gt;16</title>
<path fill="none" stroke="black" d="M1522.03,-145.51C1519.05,-144.97 1516.1,-144.46 1513.2,-144 1344.47,-117.21 1297.79,-128 1124.43,-108.1"/>
<polygon fill="black" stroke="black" points="1124.8,-104.62 1114.46,-106.94 1123.99,-111.58 1124.8,-104.62"/>
</g>
<!-- 17 -->
<g id="node18" class="node">
<title>17</title>
<polygon fill="none" stroke="black" points="1439.75,-108 1132.64,-108 1132.64,-72 1439.75,-72 1439.75,-108"/>
<text text-anchor="middle" x="1286.2" y="-85.8" font-family="Times,serif" font-size="14.00">Token{COMPARE_SIGN, Comparing operator, &lt;}</text>
</g>
<!-- 15&#45;&gt;17 -->
<g id="edge20" class="edge">
<title>15&#45;&gt;17</title>
<path fill="none" stroke="black" d="M1521.92,-145.64C1477.09,-135.25 1417.52,-121.44 1369.49,-110.31"/>
<polygon fill="black" stroke="black" points="1370.26,-106.89 1359.73,-108.04 1368.68,-113.71 1370.26,-106.89"/>
</g>
<!-- 18 -->
<g id="node19" class="node">
<title>18</title>
<polygon fill="none" stroke="black" points="1717.77,-108 1458.62,-108 1458.62,-72 1717.77,-72 1717.77,-108"/>
<text text-anchor="middle" x="1588.2" y="-85.8" font-family="Times,serif" font-size="14.00">Token{VALUE, Decimal integer literal, 5}</text>
</g>
<!-- 15&#45;&gt;18 -->
<g id="edge21" class="edge">
<title>15&#45;&gt;18</title>
<path fill="none" stroke="black" d="M1588.2,-143.7C1588.2,-135.98 1588.2,-126.71 1588.2,-118.11"/>
<polygon fill="black" stroke="black" points="1591.7,-118.1 1588.2,-108.1 1584.7,-118.1 1591.7,-118.1"/>
</g>
<!-- 19 -->
<g id="node20" class="node">
<title>19</title>
<polygon fill="none" stroke="black" points="1928.44,-108 1735.95,-108 1735.95,-72 1928.44,-72 1928.44,-108"/>
<text text-anchor="middle" x="1832.2" y="-85.8" font-family="Times,serif" font-size="14.00">Token{AND_SIGN, &amp;&amp;, &amp;&amp;}</text>
</g>
<!-- 15&#45;&gt;19 -->
<g id="edge22" class="edge">
<title>15&#45;&gt;19</title>
<path fill="none" stroke="black" d="M1647.57,-143.97C1682.26,-134.01 1726.21,-121.41 1762.53,-110.99"/>
<polygon fill="black" stroke="black" points="1763.91,-114.23 1772.55,-108.11 1761.98,-107.5 1763.91,-114.23"/>
</g>
<!-- 20 -->
<g id="node21" class="node">
<title>20</title>
<polygon fill="none" stroke="black" points="2078.27,-108 1946.12,-108 1946.12,-72 2078.27,-72 2078.27,-108"/>
<text text-anchor="middle" x="2012.2" y="-85.8" font-family="Times,serif" font-size="14.00">NonTerminal{cond}</text>
</g>
<!-- 15&#45;&gt;20 -->
<g id="edge23" class="edge">
<title>15&#45;&gt;20</title>
<path fill="none" stroke="black" d="M1654.37,-152.4C1722.54,-143.21 1832.08,-127.54 1935.96,-108.16"/>
<polygon fill="black" stroke="black" points="1936.82,-111.57 1946,-106.28 1935.52,-104.69 1936.82,-111.57"/>
</g>
<!-- 21 -->
<g id="node22" class="node">
<title>21</title>
<polygon fill="none" stroke="black" points="1840.62,-36 1623.78,-36 1623.78,0 1840.62,0 1840.62,-36"/>
<text text-anchor="middle" x="1732.2" y="-13.8" font-family="Times,serif" font-size="14.00">Token{VAR, Variable identifier, f}</text>
</g>
<!-- 20&#45;&gt;21 -->
<g id="edge24" class="edge">
<title>20&#45;&gt;21</title>
<path fill="none" stroke="black" d="M1945.84,-72.41C1905.18,-62.25 1852.94,-49.19 1810.29,-38.52"/>
<polygon fill="black" stroke="black" points="1811.06,-35.11 1800.51,-36.08 1809.36,-41.9 1811.06,-35.11"/>
</g>
<!-- 22 -->
<g id="node23" class="node">
<title>22</title>
<polygon fill="none" stroke="black" points="2165.75,-36 1858.64,-36 1858.64,0 2165.75,0 2165.75,-36"/>
<text text-anchor="middle" x="2012.2" y="-13.8" font-family="Times,serif" font-size="14.00">Token{COMPARE_SIGN, Comparing operator, &gt;}</text>
</g>
<!-- 20&#45;&gt;22 -->
<g id="edge25" class="edge">
<title>20&#45;&gt;22</title>
<path fill="none" stroke="black" d="M2012.2,-71.7C2012.2,-63.98 2012.2,-54.71 2012.2,-46.11"/>
<polygon fill="black" stroke="black" points="2015.7,-46.1 2012.2,-36.1 2008.7,-46.1 2015.7,-46.1"/>
</g>
<!-- 23 -->
<g id="node24" class="node">
<title>23</title>
<polygon fill="none" stroke="black" points="2443.77,-36 2184.62,-36 2184.62,0 2443.77,0 2443.77,-36"/>
<text text-anchor="middle" x="2314.2" y="-13.8" font-family="Times,serif" font-size="14.00">Token{VALUE, Decimal integer literal, 2}</text>
</g>
<!-- 20&#45;&gt;23 -->
<g id="edge26" class="edge">
<title>20&#45;&gt;23</title>
<path fill="none" stroke="black" d="M2078.47,-73.64C2123.31,-63.25 2182.87,-49.44 2230.91,-38.31"/>
<polygon fill="black" stroke="black" points="2231.71,-41.71 2240.66,-36.04 2230.13,-34.89 2231.71,-41.71"/>
</g>
</g>
</svg>
